<svg width="256" height="256" viewBox="0 0 256 256" fill="none" xmlns="http://www.w3.org/2000/svg">
<g clip-path="url(#clip0_193_65)">
<path d="M170.935 78.358C170.935 102.294 151.543 121.716 127.625 121.716C103.692 121.716 84.2994 102.309 84.2994 78.358C84.2994 54.4073 103.692 35 127.625 35C151.543 35 170.935 54.4073 170.935 78.358ZM71.3409 132.548C47.4233 132.548 28.0156 151.955 28.0156 175.891C28.0156 199.827 47.4083 219.249 71.3409 219.249C95.2735 219.249 114.666 199.841 114.666 175.891C114.666 151.955 95.2735 132.548 71.3409 132.548ZM183.893 132.548C159.961 132.548 140.568 151.955 140.568 175.906C140.568 199.857 159.961 219.264 183.893 219.264C207.811 219.264 227.219 199.857 227.219 175.906C227.219 151.955 207.826 132.548 183.893 132.548Z" fill="#F06A6A"/>
</g>
<defs>
<clipPath id="clip0_193_65">
<rect width="200" height="185" fill="white" transform="translate(28 35)"/>
</clipPath>
</defs>
</svg>
