<svg width="256" height="256" viewBox="0 0 256 256" fill="none" xmlns="http://www.w3.org/2000/svg">
<path d="M200.776 44H97.3719C95.1322 44 92.9843 44.8875 91.4006 46.4673C89.8169 48.0471 88.9272 50.1898 88.9272 52.424V62L147.209 80L209.221 62V52.424C209.221 50.1898 208.331 48.0471 206.747 46.4673C205.164 44.8875 203.016 44 200.776 44Z" fill="#0364B8"/>
<path d="M219.145 136.43C220.026 133.668 220.729 130.852 221.25 128C221.249 127.299 221.064 126.611 220.712 126.005C220.361 125.398 219.856 124.894 219.247 124.544L219.169 124.496L219.145 124.484L153.958 87.4401C153.677 87.2581 153.386 87.0918 153.086 86.9421C151.839 86.3247 150.466 86.0034 149.074 86.0034C147.682 86.0034 146.309 86.3247 145.062 86.9421C144.763 87.0898 144.471 87.2541 144.19 87.4342L79.0031 124.49L78.979 124.502L78.9068 124.544C78.2975 124.894 77.791 125.397 77.4384 126.004C77.0858 126.61 76.8994 127.299 76.8979 128C77.419 130.852 78.1221 133.668 79.0031 136.43L148.124 186.86L219.145 136.43Z" fill="#0A2767"/>
<path d="M173.133 62H131.03L118.875 80L131.03 98L173.133 134H209.221V98L173.133 62Z" fill="#28A8EA"/>
<path d="M88.9272 62H131.03V98H88.9272V62Z" fill="#0078D4"/>
<path d="M173.133 62H209.221V98H173.133V62Z" fill="#50D9FF"/>
<path d="M173.133 134L131.03 98H88.9272V134L131.03 170L196.181 180.608L173.133 134Z" fill="#0364B8"/>
<path d="M131.03 98H173.133V134H131.03V98Z" fill="#0078D4"/>
<path d="M88.9272 134H131.03V170H88.9272V134Z" fill="#064A8C"/>
<path d="M173.133 134H209.221V170H173.133V134Z" fill="#0078D4"/>
<path opacity="0.5" d="M150.217 183.308L79.2861 131.708L82.2634 126.488C82.2634 126.488 146.891 163.208 147.878 163.76C148.281 163.921 148.714 163.998 149.148 163.986C149.583 163.973 150.01 163.872 150.404 163.688L216.162 126.308L219.145 131.522L150.217 183.308Z" fill="#0A2767"/>
<path d="M219.248 131.462L219.163 131.51L219.145 131.522L153.958 168.566C152.664 169.399 151.176 169.886 149.639 169.982C148.101 170.077 146.565 169.778 145.177 169.112L167.876 199.478L217.521 210.26V210.284C218.676 209.451 219.616 208.356 220.265 207.09C220.913 205.823 221.251 204.422 221.25 203V128C221.251 128.702 221.066 129.391 220.714 129.999C220.362 130.606 219.857 131.111 219.248 131.462Z" fill="#1490DF"/>
<path opacity="0.05" d="M221.25 203V198.572L161.206 164.444L153.958 168.566C152.664 169.399 151.176 169.886 149.639 169.982C148.101 170.077 146.565 169.778 145.177 169.112L167.876 199.478L217.521 210.26V210.284C218.676 209.451 219.616 208.356 220.265 207.09C220.913 205.823 221.251 204.422 221.25 203Z" fill="black"/>
<path opacity="0.1" d="M220.95 205.298L155.131 167.9L153.958 168.56C152.664 169.394 151.177 169.882 149.64 169.979C148.102 170.075 146.566 169.777 145.177 169.112L167.876 199.478L217.521 210.26V210.284C219.205 209.067 220.416 207.308 220.95 205.304V205.298Z" fill="black"/>
<path d="M79.0033 131.54V131.48H78.9431L78.7627 131.36C78.1877 131.008 77.7138 130.514 77.3871 129.925C77.0603 129.336 76.8919 128.673 76.8981 128V203C76.8965 204.182 77.1288 205.353 77.5817 206.446C78.0345 207.539 78.699 208.531 79.5371 209.367C80.3752 210.204 81.3704 210.866 82.4657 211.318C83.561 211.77 84.7349 212.002 85.9201 212H212.228C212.98 211.993 213.727 211.892 214.454 211.7C214.831 211.635 215.196 211.513 215.536 211.34C215.664 211.328 215.788 211.287 215.897 211.22C216.39 211.019 216.854 210.757 217.281 210.44C217.401 210.38 217.461 210.38 217.521 210.26L79.0033 131.54Z" fill="#28A8EA"/>
<path opacity="0.1" d="M137.045 180.002V81.998C137.038 79.8787 136.192 77.8481 134.689 76.3496C133.187 74.851 131.152 74.0063 129.027 74H89.1077V118.736L79.0031 124.484L78.973 124.496L78.9008 124.538C78.2917 124.889 77.7859 125.393 77.4343 126.001C77.0827 126.609 76.8977 127.298 76.8979 128V188H129.027C131.152 187.994 133.187 187.149 134.689 185.65C136.192 184.152 137.038 182.121 137.045 180.002Z" fill="black"/>
<path opacity="0.2" d="M131.03 186.002V87.998C131.024 85.8787 130.177 83.8481 128.675 82.3496C127.173 80.851 125.137 80.0063 123.012 80H89.1077V118.736L79.0031 124.484L78.973 124.496L78.9008 124.538C78.2917 124.889 77.7859 125.393 77.4343 126.001C77.0827 126.609 76.8977 127.298 76.8979 128V194H123.012C125.137 193.994 127.173 193.149 128.675 191.65C130.177 190.152 131.024 188.121 131.03 186.002Z" fill="black"/>
<path opacity="0.2" d="M131.03 174.002V87.998C131.024 85.8787 130.177 83.8481 128.675 82.3496C127.173 80.851 125.137 80.0063 123.012 80H89.1077V118.736L79.0031 124.484L78.973 124.496L78.9008 124.538C78.2917 124.889 77.7859 125.393 77.4343 126.001C77.0827 126.609 76.8977 127.298 76.8979 128V182H123.012C125.137 181.994 127.173 181.149 128.675 179.65C130.177 178.152 131.024 176.121 131.03 174.002Z" fill="black"/>
<path opacity="0.2" d="M125.015 174.002V87.998C125.009 85.8787 124.162 83.8481 122.66 82.3496C121.158 80.851 119.122 80.0063 116.998 80H89.1077V118.736L79.0031 124.484L78.973 124.496L78.9008 124.538C78.2917 124.889 77.7859 125.393 77.4343 126.001C77.0827 126.609 76.8977 127.298 76.8979 128V182H116.998C119.122 181.994 121.158 181.149 122.66 179.65C124.162 178.152 125.009 176.121 125.015 174.002Z" fill="black"/>
<path d="M36.7983 80H116.998C119.124 80 121.164 80.8426 122.667 82.3426C124.171 83.8425 125.016 85.8768 125.016 87.998V168.002C125.016 170.123 124.171 172.158 122.667 173.657C121.164 175.157 119.124 176 116.998 176H36.7983C34.6719 176 32.6326 175.157 31.1291 173.657C29.6255 172.158 28.7808 170.123 28.7808 168.002V87.998C28.7808 85.8768 29.6255 83.8425 31.1291 82.3426C32.6326 80.8426 34.6719 80 36.7983 80Z" fill="#0078D4"/>
<path d="M52.0394 112.808C54.1698 108.279 57.6091 104.489 61.9155 101.924C66.6865 99.1997 72.1187 97.8419 77.6138 98.0002C82.7019 97.8901 87.7225 99.177 92.1272 101.72C96.2734 104.184 99.6126 107.796 101.739 112.118C104.055 116.882 105.209 122.125 105.107 127.418C105.218 132.947 104.03 138.426 101.636 143.414C99.4641 147.89 96.0243 151.632 91.7423 154.178C87.1648 156.803 81.9536 158.124 76.6755 158C71.4757 158.124 66.3415 156.823 61.8313 154.238C57.652 151.771 54.2734 148.154 52.0996 143.822C49.7676 139.129 48.5981 133.946 48.6892 128.708C48.5884 123.224 49.7337 117.788 52.0394 112.808ZM62.5651 138.356C63.7 141.219 65.6249 143.703 68.1166 145.52C70.6558 147.293 73.6975 148.208 76.7958 148.13C80.0964 148.258 83.3493 147.313 86.0644 145.436C88.5285 143.62 90.4043 141.123 91.4596 138.254C92.6428 135.058 93.226 131.671 93.1798 128.264C93.2165 124.825 92.6674 121.404 91.5558 118.148C90.5751 115.219 88.7662 112.635 86.3471 110.708C83.7036 108.737 80.4602 107.735 77.1627 107.87C73.997 107.79 70.8871 108.712 68.279 110.504C65.7383 112.324 63.7691 114.828 62.6012 117.722C60.0176 124.358 60.0026 131.716 62.5591 138.362L62.5651 138.356Z" fill="white"/>
</svg>
